<svg xmlns="http://www.w3.org/2000/svg" viewBox="0 6.150000095367432 282.8599853515625 50.04999923706055" data-asc="0.951171875"><g fill="#c6d30d"><g fill="#c6d30d" transform="translate(0, 0)"><path d="M26.95 17.29Q23.29 17.29 21.56 13.67L21.56 15.70Q21.53 18.75 18.12 21.24L13.96 24.15Q10.25 26.83 10.25 30.51Q10.25 34.18 13.57 35.64Q14.72 36.16 16.38 36.16Q16.46 36.16 16.53 36.16L16.53 37.38Q16.48 37.38 16.46 37.38Q12.62 37.38 10.67 35.11Q9.03 33.23 9.03 30.35Q9.03 26.22 13.11 23.24L17.24 20.36Q20.36 18.14 20.34 15.70L20.34 11.33Q18.51 10.72 15.67 10.72Q12.84 10.72 10.22 11.99Q7.59 13.26 5.59 15.63Q1.22 20.80 1.22 28.64Q1.22 36.47 5.27 41.55Q8.01 44.97 12.26 46.34Q14.40 47.02 16.71 47.02Q19.02 47.02 20.81 46.51Q22.61 46.00 24.12 45.17Q26.86 43.63 28.76 41.32Q30.66 39.01 31.49 36.91L32.62 37.35Q31.15 41.06 27.66 44.19Q23.12 48.24 17.37 48.24Q11.62 48.24 7.79 45.64Q3.96 43.04 1.98 38.68Q0 34.33 0 29.41Q0 24.49 1.26 20.85Q2.51 17.21 4.65 14.69Q6.79 12.16 9.64 10.83Q12.50 9.50 15.49 9.50Q18.48 9.50 19.93 9.97Q21.39 10.45 21.85 10.82Q23.19 16.06 26.94 16.06Q30.69 16.06 31.64 11.60L32.81 11.84Q31.69 17.29 26.95 17.29ZM51.15 48.32Q48.41 46.29 47.90 43.41L41.41 48.32Q38.43 47.78 37.35 45.46Q36.99 44.68 36.99 43.63Q36.99 43.55 36.99 43.51L36.99 30.52Q36.99 25.90 40.31 23.39L48.05 17.53L48.95 18.02L48.95 41.60Q48.95 43.26 49.57 44.65Q50.20 46.04 51.86 47.31L51.15 48.32M38.21 43.51Q38.21 46.22 41.04 47.00L47.75 41.94L47.75 19.12L41.19 24.22Q39.79 25.29 39.00 26.75Q38.21 28.20 38.21 30.52L38.21 43.51ZM56.98 23.22Q56.98 20.17 54.69 18.58L55.37 17.55Q57.23 18.80 57.93 21.14Q58.20 22.02 58.20 23.14L65.26 17.63Q67.77 20.43 68.51 23.27L75.68 17.63Q78.78 21.04 79.81 25.10Q80.18 26.51 80.18 28.00Q80.18 29.98 79.79 34.74Q79.39 39.50 79.39 41.43Q79.39 44.85 82.28 47.14L81.54 48.12Q78.83 46.02 78.34 43.29Q78.17 42.24 78.17 40.87Q78.17 40.01 78.25 39.01Q78.42 36.47 78.69 33.24Q78.96 30.00 78.96 28.37Q78.96 23.49 75.51 19.31L68.80 24.58Q68.97 25.90 68.97 26.98L68.97 47.56L67.75 47.56L67.75 26.98Q67.75 22.46 65.09 19.31L58.20 24.68L58.20 47.56L56.98 47.56L56.98 23.22ZM86.35 44.75Q83.94 44.75 83.45 47.56L82.20 47.56Q82.74 43.53 86.35 43.53Q87.60 43.53 89.09 44.09L89.09 25.44Q89.09 24.15 88.43 22.72Q87.77 21.29 87.48 20.51Q87.16 19.78 87.16 19.04Q87.16 17.68 87.67 16.85Q88.18 16.02 89.48 14.84L90.31 15.77Q88.75 17.14 88.48 18.12Q88.38 18.48 88.38 19.02Q88.38 19.85 89.04 21.29L89.60 22.49Q89.89 23.10 90.09 23.78L97.53 17.60L99.24 19.58Q102.17 23.00 102.17 26.46L102.17 37.65Q102.17 42.09 99.34 44.36L94.48 48.29L93.24 47.46Q92.11 46.73 90.31 45.85L90.31 56.20L89.09 56.20L89.09 45.34Q87.55 44.75 86.35 44.75M90.31 44.56Q92.04 45.31 92.94 45.87L94.43 46.78L98.56 43.43Q100.95 41.48 100.95 37.65L100.95 26.46Q100.95 24.51 100.17 23.12Q99.39 21.73 98.75 20.92L97.39 19.31L90.31 25.17L90.31 44.56ZM113.04 48.24Q108.54 43.31 108.54 37.79Q108.54 35.67 108.94 30.85Q109.33 26.03 109.33 23.71Q109.33 20.26 106.45 17.99L107.18 17.02Q109.91 19.12 110.40 21.85Q110.55 22.73 110.55 24.05Q110.55 25.93 110.16 30.74Q109.77 35.55 109.77 37.35Q109.77 42.53 113.21 46.56L120.09 41.21L120.09 17.58L121.31 17.58L121.31 42.53Q121.31 44.97 122.80 46.48Q123.22 46.92 123.61 47.17L122.92 48.19Q121.14 47.12 120.39 44.68Q120.12 43.80 120.09 42.75L113.04 48.24ZM133.13 21.07L128.39 25.61L133.33 31.57Q133.59 31.40 134.01 31.08L139.94 26.61Q141.16 27.51 142.16 29.04Q143.16 30.57 143.90 32.19Q144.63 33.81 144.63 35.86Q144.63 39.87 141.92 43.30Q139.21 46.73 134.84 48.32Q134.40 47.56 133.74 46.78L130.81 43.55Q128.03 40.53 128.03 37.87Q128.03 36.11 130.03 34.20L130.79 35.11Q129.22 36.62 129.22 37.88Q129.22 39.14 129.90 40.31Q130.57 41.48 131.53 42.57Q132.50 43.65 133.56 44.70Q134.62 45.75 135.38 46.85Q139.06 45.26 141.24 42.24Q143.41 39.21 143.41 35.95Q143.41 32.69 140.97 29.35Q140.38 28.54 139.94 28.10L133.13 33.15L126.73 25.56L133.23 19.21Q134.67 21.24 135.60 21.90Q137.13 22.95 138.57 22.95Q141.16 22.95 142.72 21.39Q144.29 19.82 144.29 17.55Q144.29 15.31 142.71 13.73Q141.14 12.16 138.85 12.16Q136.57 12.16 135.03 13.75Q133.50 15.33 133.47 17.55L132.28 17.55Q132.28 14.89 134.22 12.93Q136.16 10.96 138.87 10.96Q141.55 10.94 143.53 12.89Q145.51 14.84 145.53 17.60Q145.53 20.31 143.58 22.27Q141.63 24.22 138.65 24.22Q135.67 24.22 133.13 21.07ZM162.99 9.25L164.21 9.25L164.21 50.81L162.99 50.81L162.99 9.25ZM203.13 10.94Q205.93 9.28 208.96 9.28L208.96 10.50Q206.35 10.50 204.05 11.79Q206.40 14.33 206.40 18.75L205.18 18.75Q205.18 14.70 203.00 12.48Q199.90 14.77 199.90 17.92Q199.90 21.12 202.17 24.12L203.86 26.27Q204.03 26.49 204.22 26.71L219.31 14.99L220.00 15.92L213.99 20.58Q218.90 25.49 218.90 32.20Q218.87 38.96 214.33 43.26Q209.79 47.56 202.08 47.56Q192.60 47.56 187.45 41.67Q182.84 36.40 182.84 28.81Q182.84 23.63 184.81 19.13Q186.79 14.62 190.22 11.95Q193.65 9.28 197.30 9.28Q200.95 9.28 203.13 10.94M202.05 11.67Q200.32 10.50 198.06 10.50Q195.80 10.50 194.04 11.18Q192.26 11.82 190.75 13.04Q187.70 15.45 185.88 19.67Q184.06 23.88 184.06 28.78Q184.06 35.72 188.35 40.72Q193.19 46.34 202.05 46.34Q209.23 46.34 213.45 42.35Q217.68 38.35 217.68 32.15Q217.68 25.95 213.04 21.31L204.91 27.64Q208.01 31.98 208.01 35.45Q207.98 38.92 206.32 40.63Q204.66 42.31 202.20 42.31Q202.17 42.31 202.12 42.31Q199.88 42.29 198.58 41.08Q197.29 39.87 197.29 38.13Q197.29 36.57 198.40 35.42Q199.51 34.28 201.15 34.25L201.15 35.47Q201.12 35.47 201.07 35.47Q200 35.45 199.27 36.23Q198.51 37.01 198.51 37.87Q198.51 39.28 199.48 40.19Q200.44 41.09 201.76 41.09Q204.13 41.09 205.46 39.71Q206.79 38.33 206.79 35.69Q206.79 31.76 202.59 26.61L201.15 24.78Q198.68 21.56 198.68 17.94Q198.68 14.33 202.05 11.67ZM229.54 48.24Q225.05 43.31 225.05 37.79Q225.05 35.67 225.44 30.85Q225.83 26.03 225.83 23.71Q225.83 20.26 222.95 17.99L223.68 17.02Q226.42 19.12 226.90 21.85Q227.05 22.73 227.05 24.05Q227.05 25.93 226.66 30.74Q226.27 35.55 226.27 37.35Q226.27 42.53 229.71 46.56L236.60 41.21L236.60 17.58L237.82 17.58L237.82 42.53Q237.82 44.97 239.31 46.48Q239.72 46.92 240.11 47.17L239.43 48.19Q237.65 47.12 236.89 44.68Q236.62 43.80 236.60 42.75L229.54 48.24ZM248.90 48.32Q245.48 45.75 245.48 41.60L245.48 18.26L246.70 18.26L246.70 41.60Q246.70 43.26 247.33 44.65Q247.95 46.04 249.61 47.31L248.90 48.32M246.66 14.82L245.51 14.45L247.36 10.01L248.85 10.62L246.66 14.82ZM254.25 47.90L254.25 26.76Q254.25 25.17 255.10 24.27L258.42 20.58Q254.13 16.99 253.34 13.82Q253.05 12.70 253.05 11.62Q253.05 9.77 253.81 8.28Q254.57 6.79 255.47 6.15L256.15 7.15Q254.93 7.93 254.42 9.96Q254.25 10.64 254.25 11.67Q254.25 13.87 255.51 15.77Q256.76 17.68 259.90 20.31Q263.04 22.95 264.14 24.71Q266.21 27.98 266.21 31.49Q266.21 35.03 265.55 36.87Q264.40 40.09 261.96 42.36L255.57 48.32L254.25 47.90M264.89 34.20Q265.01 32.86 265.01 31.30Q265.01 28.39 263.43 25.84Q261.84 23.29 259.35 21.34L256.01 25.05Q255.47 25.63 255.47 26.76L255.47 46.80L261.16 41.55Q264.50 38.53 264.89 34.20ZM282.10 44.12L276.76 48.29Q274.10 47.51 272.60 45.67Q271.09 43.82 271.09 40.92L271.09 28.08Q271.09 25.51 271.91 23.69Q272.73 21.88 274.71 20.48L278.96 17.53L282.86 24.93L272.31 32.89L272.31 40.92Q272.31 45.46 276.44 46.92L281.37 43.09L282.10 44.12M272.31 31.35L281.40 24.63L278.56 19.24L275.42 21.48Q272.31 23.63 272.31 28.08L272.31 31.35Z"/></g></g></svg>