<svg xmlns="http://www.w3.org/2000/svg" viewBox="0 6.25 265.45001220703125 39.099998474121094" data-asc="0.883"><g fill="#0091eb"><g fill="#0091eb" transform="translate(0, 0)"><path d="M7.15 44.25Q4 44.25 2 41.30Q0 38.35 0 33.20Q0 28.50 1.30 23.92Q2.60 19.35 4.95 15.70Q7.30 12.05 10.53 9.82Q13.75 7.60 17.65 7.60Q20.10 7.60 21.85 9.50Q23.60 11.40 23.60 14.60L23.60 15.20Q23.60 15.40 23.60 15.55Q23.60 15.70 23.55 15.90L17 17.65Q16.40 16.40 15.60 16.40Q14.40 16.40 13.07 18.35Q11.75 20.30 10.55 23.00Q9.75 24.80 9.13 26.70Q8.50 28.60 8.15 30.25Q7.80 31.90 7.80 32.95Q7.80 34.50 8.25 35.20Q8.60 35.85 9.35 35.85Q10.10 35.85 11 35.13Q11.90 34.40 12.68 33.30Q13.45 32.20 13.70 31.10L19.40 33.40Q16.95 39 13.57 41.63Q10.20 44.25 7.15 44.25ZM31.70 44.05Q31.80 43.20 31.90 42.40Q32 41.60 32.10 40.80L32.40 38Q32.45 37.30 32.50 36.70Q32.55 36.10 32.60 35.60L28.25 35.60L26.25 42.80Q25.15 42.95 23.65 43.13Q22.15 43.30 20.85 43.45Q20.05 43.55 19.28 43.65Q18.50 43.75 17.70 43.85L21.65 30.75Q22.35 28.40 23.25 25.40Q24.15 22.40 25.08 19.25Q26.00 16.10 26.83 13.32Q27.65 10.55 28.15 8.65Q31.55 8.40 35.08 8.05Q38.60 7.70 41.95 7.10Q41.70 9.90 41.48 13.42Q41.25 16.95 41.08 20.70Q40.90 24.45 40.70 28.10Q40.60 31.55 40.45 35.22Q40.30 38.90 40.15 42.75Q39.40 42.85 38.65 42.95Q37.90 43.05 37.15 43.15Q35.90 43.35 34.40 43.60Q32.90 43.85 31.70 44.05M29.45 30.60Q29.75 30.60 30.58 30.55Q31.40 30.50 32.15 30.45Q32.90 30.40 33.05 30.40Q33.05 29.75 33.25 27.75Q33.45 25.75 33.65 23.55Q33.75 22.25 33.88 20.87Q34 19.50 34.15 18.05L34.45 13.70L33.70 13.75L32.55 18.05L29.45 30.60ZM38.90 43.85Q41.10 37.15 43.10 30.80Q43.95 28.20 44.85 25.25Q45.75 22.30 46.65 19.32Q47.55 16.35 48.35 13.60Q49.15 10.85 49.70 8.70Q52.45 8.70 54.90 8.40Q56.15 8.25 57.48 8.10Q58.80 7.95 60.20 7.85L59.90 10.30Q59.80 11 59.70 11.72Q59.60 12.45 59.50 13.20Q59.40 13.95 59.25 14.72Q59.10 15.50 59.00 16.30Q58.80 17.85 58.40 20.62Q58.00 23.40 57.45 26.65L58.10 26.65Q59.55 22.85 60.50 20.32Q61.45 17.80 62.05 16.20Q62.90 13.85 63.90 11.45Q64.90 9.05 65.55 7.75Q66.75 7.65 68.43 7.42Q70.10 7.20 71.83 6.90Q73.55 6.60 74.80 6.40Q74.10 10.60 73.53 14.87Q72.95 19.15 72.53 23.02Q72.10 26.90 71.80 30Q71.50 33.10 71.25 36.13Q71 39.15 70.75 42.10L62.05 43.65Q62.05 43.55 62.20 41.40Q62.35 39.25 62.70 36.05Q63.05 32.85 63.40 29.97Q63.75 27.10 64.10 25.25L63.65 25.25Q62.40 29.05 60.63 33.55Q58.85 38.05 57.15 43.50Q55.40 43.55 54.15 43.63Q52.90 43.70 51.25 43.80L52.85 25.25L52.10 25.25Q52.05 25.80 51.65 27.37Q51.25 28.95 50.70 30.97Q50.15 33 49.55 35Q47.30 42.85 47.15 43.30L38.90 43.85ZM71.20 44.20Q72.70 37.45 74.05 31Q74.60 28.40 75.18 25.42Q75.75 22.45 76.35 19.40Q76.95 16.35 77.45 13.62Q77.95 10.90 78.25 8.85Q80.25 8.25 82.58 7.75Q84.90 7.25 86.75 7.25Q89.75 7.25 91.50 8.52Q93.25 9.80 94.00 11.95Q94.75 14.10 94.75 16.65Q94.75 19.45 93.73 22.02Q92.70 24.60 90.98 26.65Q89.25 28.70 87.03 29.90Q84.80 31.10 82.40 31.10L81.85 31.10Q81.45 32.80 81.10 34.80Q80.75 36.80 80.50 38.50Q80.30 39.50 80.15 40.50Q80.00 41.50 79.85 42.50L71.20 44.20M82.85 25.85Q84.00 25.55 85.15 24.32Q86.30 23.10 87.05 21.20Q87.80 19.30 87.80 17.05Q87.80 15.20 86.98 14.25Q86.15 13.30 85.15 13.30Q84.60 16.60 84.05 19.55Q83.50 22.50 82.85 25.85ZM98.55 45.05Q97.05 45.05 95.50 44.40Q93.95 43.75 92.90 42.40Q91.85 41.05 91.85 38.95L91.85 38.55Q91.85 38.30 91.90 38.15Q92.05 36.85 92.33 34.75Q92.60 32.65 93.00 30.17Q93.40 27.70 93.83 25.25Q94.25 22.80 94.60 20.80Q95.35 16.80 95.80 14.35Q96.25 11.90 96.53 10.57Q96.80 9.25 96.95 8.60Q97.50 8.55 98.13 8.47Q98.75 8.40 99.45 8.35Q100.15 8.25 100.83 8.20Q101.50 8.15 102.15 8.10L105.20 7.80Q104.55 10.85 103.98 13.57Q103.40 16.30 102.90 18.75L100.60 29.80Q100.30 31.05 100.15 31.90Q99.95 32.70 99.73 33.92Q99.50 35.15 99.50 36.15Q99.50 36.95 99.90 37.47Q100.30 38 100.90 38Q101.75 38 102.30 37.35Q102.85 36.70 103.20 35.75Q103.55 34.80 103.75 33.82Q103.95 32.85 104.10 32.25Q104.60 29.95 105.03 27.77Q105.45 25.60 105.93 23.15Q106.40 20.70 107.00 17.50Q107.40 15.30 107.83 13.02Q108.25 10.75 108.65 8.40L116.25 7.90Q116.25 7.90 115.80 10.30Q115.35 12.70 114.50 17.55Q114.15 19.40 113.73 21.70Q113.30 24.00 112.80 26.35Q112.30 28.70 111.88 30.80Q111.45 32.90 111.10 34.40Q110.10 38.50 108.00 40.82Q105.90 43.15 103.38 44.10Q100.85 45.05 98.55 45.05ZM119.80 44.25Q117.80 44.25 115.80 43.17Q113.80 42.10 111.95 39.75L115.65 32.50Q116.20 33.45 117.28 34.30Q118.35 35.15 119.55 35.65Q120.75 36.15 121.60 36.15Q122.90 36.15 124.08 35.35Q125.25 34.55 125.25 33.20Q125.25 31.45 123.65 30Q122.05 28.55 120.05 27.15Q118.10 25.75 116.48 23.97Q114.85 22.20 114.85 19.90Q114.85 17.30 116.35 15.07Q117.85 12.85 120.25 11.17Q122.65 9.50 125.38 8.57Q128.10 7.65 130.55 7.65Q132.30 7.65 133.80 8.22Q135.30 8.80 136.20 10.10Q137.10 11.40 137.10 13.60Q137.10 13.95 137.08 14.30Q137.05 14.65 137 15.00Q136.95 15.35 136.88 15.72Q136.80 16.10 136.75 16.50L129.50 18.60Q129.60 18.20 129.68 17.80Q129.75 17.40 129.75 17.00Q129.75 15.50 129.23 14.82Q128.70 14.15 127.85 14.15Q127.40 14.15 126.55 14.62Q125.70 15.10 125.03 15.92Q124.35 16.75 124.35 17.75Q124.35 19.40 125.73 20.47Q127.10 21.55 128.90 22.65Q129.75 23.15 130.80 24.22Q131.85 25.30 132.63 27.12Q133.40 28.95 133.40 31.80Q133.40 35.50 131.58 38.30Q129.75 41.10 126.65 42.67Q123.55 44.25 119.80 44.25ZM143.60 45.10Q144.75 40.10 145.90 34.13Q147.05 28.15 148.25 21.65Q148.90 18.10 149.55 14.37Q150.20 10.65 150.85 6.85L158.50 6.25Q157.80 10 157.15 13.60Q156.50 17.20 155.85 20.70Q155.10 24.60 154.35 28.88Q153.60 33.15 152.95 37.13Q152.30 41.10 151.90 44.15Q151 44.15 149.63 44.27Q148.25 44.40 146.90 44.57Q145.55 44.75 144.60 44.90Q143.65 45.05 143.60 45.10ZM175.80 45.35Q173.95 45.35 172.28 44.55Q170.60 43.75 169.40 42.10Q168.15 40.50 167.45 38.05Q166.75 35.60 166.75 32.30Q166.75 25.85 168.60 21.05Q170.45 16.25 173.30 13.05Q176.10 9.85 179.33 8.30Q182.55 6.75 185.35 6.75Q188.05 6.75 189.75 7.92Q191.45 9.10 192.25 11.05Q193.05 13.00 193.05 15.40L186.20 16.70Q185.75 14.70 185 13.85Q184.25 13.00 183.30 13.00Q182.20 13.00 181.03 14.20Q179.85 15.40 178.72 17.42Q177.60 19.45 176.70 21.95Q175.80 24.45 175.22 27.10Q174.65 29.75 174.55 32.10Q174.55 35.20 175.47 36.52Q176.40 37.85 177.85 37.85Q179.25 37.85 180.63 36.95Q182 36.05 182.93 34.52Q183.85 33 183.90 31.10L178.55 31.90L179.50 26.95L184.10 26.35Q186 26.10 188.13 25.75Q190.25 25.40 191.85 25.10Q191.50 30.20 189.88 34.02Q188.25 37.85 185.85 40.35Q183.45 42.85 180.83 44.10Q178.20 45.35 175.80 45.35ZM197.85 45.05Q196.35 45.05 194.80 44.40Q193.25 43.75 192.20 42.40Q191.15 41.05 191.15 38.95L191.15 38.55Q191.15 38.30 191.20 38.15Q191.35 36.85 191.63 34.75Q191.90 32.65 192.30 30.17Q192.70 27.70 193.13 25.25Q193.55 22.80 193.90 20.80Q194.65 16.80 195.10 14.35Q195.55 11.90 195.83 10.57Q196.10 9.25 196.25 8.60Q196.80 8.55 197.43 8.47Q198.05 8.40 198.75 8.35Q199.45 8.25 200.13 8.20Q200.80 8.15 201.45 8.10L204.50 7.80Q203.85 10.85 203.28 13.57Q202.70 16.30 202.20 18.75L199.90 29.80Q199.60 31.05 199.45 31.90Q199.25 32.70 199.03 33.92Q198.80 35.15 198.80 36.15Q198.80 36.95 199.20 37.47Q199.60 38 200.20 38Q201.05 38 201.60 37.35Q202.15 36.70 202.50 35.75Q202.85 34.80 203.05 33.82Q203.25 32.85 203.40 32.25Q203.90 29.95 204.33 27.77Q204.75 25.60 205.23 23.15Q205.70 20.70 206.30 17.50Q206.70 15.30 207.13 13.02Q207.55 10.75 207.95 8.40L215.55 7.90Q215.55 7.90 215.10 10.30Q214.65 12.70 213.80 17.55Q213.45 19.40 213.03 21.70Q212.60 24.00 212.10 26.35Q211.60 28.70 211.18 30.80Q210.75 32.90 210.40 34.40Q209.40 38.50 207.30 40.82Q205.20 43.15 202.68 44.10Q200.15 45.05 197.85 45.05ZM210.80 44.10Q211.50 41.20 212.20 37.52Q212.90 33.85 213.60 29.90Q214.30 25.95 214.90 22.30Q215.45 19.10 215.98 15.80Q216.50 12.50 217 9.15L224.80 7.90L222.55 21.05Q221.80 25.70 221.23 29.40Q220.65 33.10 220.13 36.40Q219.60 39.70 219.05 43.15Q218.10 43.15 216.75 43.27Q215.40 43.40 214.05 43.57Q212.70 43.75 211.78 43.90Q210.85 44.05 210.80 44.10ZM223.65 44.40Q222.95 44.40 222.25 44.32Q221.55 44.25 220.85 44.15L223.50 30.70Q224 27.95 224.58 24.87Q225.15 21.80 225.70 18.77Q226.25 15.75 226.68 13.15Q227.10 10.55 227.35 8.75Q229.50 8.35 231.70 8Q233.90 7.65 236.20 7.65Q239.90 7.65 242.05 9.17Q244.20 10.70 245.15 13.17Q246.10 15.65 246.10 18.60Q246.10 21.25 245.35 24.17Q244.60 27.10 243.23 29.97Q241.85 32.85 239.95 35.40Q237 39.35 232.78 41.88Q228.55 44.40 223.65 44.40M229.60 38.10Q231.35 36.95 232.93 34.60Q234.50 32.25 235.90 28.95Q237.15 25.90 237.85 23.17Q238.55 20.45 238.55 18.65Q238.55 16.80 237.53 15.75Q236.50 14.70 234.30 14.70Q233.50 19.00 232.68 22.65Q231.85 26.30 231.08 30Q230.30 33.70 229.60 38.10ZM243.10 44.20L249.65 8.65L265.45 7.30Q265.10 8.40 264.85 9.55Q264.60 10.50 264.38 11.52Q264.15 12.55 264 13.35Q263.35 13.40 262.15 13.42Q260.95 13.45 259.70 13.47Q258.45 13.50 257.55 13.50Q256.65 13.50 256.60 13.50L254.85 22.45L257.75 22.30Q258.30 22.25 258.88 22.25Q259.45 22.25 260 22.25Q260.55 22.25 261 22.25Q261.45 22.25 261.70 22.20Q261.60 22.90 261.53 23.57Q261.45 24.25 261.35 24.95L260.90 27.70Q260.65 27.75 260.25 27.75Q259.85 27.75 259.30 27.75Q258.75 27.80 258.15 27.80Q257.55 27.80 257 27.85Q256.35 27.90 255.65 27.90Q254.95 27.90 254.15 27.95L252.45 37.15L259.75 36L259.25 41.70L243.10 44.20Z"/></g></g></svg>