<svg xmlns="http://www.w3.org/2000/svg" viewBox="0 7.949999809265137 208.85000610351562 45.5" data-asc="0.76"><g fill="#0091eb"><g fill="#0091eb" transform="translate(0, 0)"><path d="M8.55 40.10Q4.90 40.10 2.65 38.60Q0 36.85 0 33.40Q0 30.65 1.25 27.95Q2.50 25.25 4.53 22.80Q6.55 20.35 8.95 18.32Q11.35 16.30 13.60 14.90Q20.40 10.75 26.90 10.75Q32.55 10.75 32.55 14.65Q32.55 18.05 28.80 20.90Q25.20 23.65 21.75 23.65Q18.10 23.65 18.10 20.85Q18.10 18.85 19.00 18.85Q19.35 18.85 19.35 19.30Q19.35 19.35 19.35 19.47Q19.35 19.60 19.30 19.75Q19.25 19.90 19.25 20Q19.25 20.10 19.25 20.20Q19.25 22.15 21.80 22.15Q24.45 22.15 27.80 19.60Q31.15 17.05 31.15 14.55Q31.15 12.10 27.00 12.10Q26.60 12.10 26.18 12.13Q25.75 12.15 25.35 12.20Q21.00 12.65 15.55 15.80Q13.35 17.05 11.07 18.82Q8.80 20.60 6.90 22.75Q5 24.90 3.83 27.35Q2.65 29.80 2.65 32.45Q2.65 33.85 3.13 35.10Q3.60 36.35 4.55 37.10Q6.15 38.40 9 38.40Q18.05 38.40 26.60 31.20Q26.80 31 27.00 31Q27.30 31 27.33 31Q27.35 31 27.35 31.35Q27.35 31.60 27.15 31.80Q25.20 33.60 23.05 34.98Q20.90 36.35 18.50 37.50Q13.10 40.10 8.55 40.10ZM28.40 38.15Q26.85 38.15 26.85 36.45Q26.85 33.90 29.35 30.20Q31.80 26.55 34.20 25.70Q34.65 25.55 35.05 25.45Q35.45 25.35 35.85 25.35Q37.65 25.35 38.45 26.60Q38.60 26.80 38.60 26.95Q38.60 27.05 38.25 27.10Q37.95 27.15 37.75 27.45Q36.55 29.40 36.55 33.30Q36.55 36.90 38.10 36.90Q39.15 36.90 41.15 34.70Q41.45 34.40 42 33.65Q42.55 32.90 43.10 32.13Q43.65 31.35 43.85 31.10Q44 30.95 44.10 30.95Q44.30 30.95 44.30 31.30Q44.30 31.55 44 32Q42.90 33.75 41.50 35.40Q40.10 37.05 39.10 37.55Q38.20 38 37.30 38Q34.25 38 34.25 33.70Q34.25 33.35 34.28 32.98Q34.30 32.60 34.35 32.20Q30.95 38.15 28.40 38.15M29.25 36.65Q29.80 36.65 30.55 36.02Q31.30 35.40 32.10 34.35Q33.30 32.75 34.35 30.95Q35.40 29.15 36.20 27.05Q36.05 27 35.75 27Q33.70 27 31.60 29.55Q28.55 33.20 28.55 35.60Q28.55 36.65 29.25 36.65ZM41.75 38.20Q41.35 38.20 41.35 37.30Q41.35 37 41.40 36.90Q41.95 35.55 42.55 33.65Q43.15 31.75 43.75 29.30Q43.80 28.95 43.88 28.60Q43.95 28.25 44.15 27.30Q44.20 27.20 44.35 27Q44.50 26.80 44.80 26.60Q45.35 26.25 45.80 26.25Q46.15 26.25 46.15 26.55Q46.15 26.80 45.55 28.70Q44.95 30.60 43.80 34.15L49.30 26.80Q50 25.90 50.85 25.90Q51.65 25.90 51.65 26.80Q51.65 27.15 51.58 27.77Q51.50 28.40 51.30 29.35Q51.10 30.30 50.92 31.73Q50.75 33.15 50.50 35Q51.20 34 52.27 32.52Q53.35 31.05 54.85 29.15Q55.60 28.20 56.45 28.20Q57.20 28.20 57.20 29.15Q57.20 29.55 57.13 30.13Q57.05 30.70 56.95 31.50Q56.85 32.30 56.78 32.90Q56.70 33.50 56.70 33.90Q56.70 36.50 58.05 36.50Q60 36.50 62.90 32.30Q63.25 31.80 63.40 31.80Q63.65 31.80 63.65 32.25Q63.65 32.35 63.58 32.48Q63.50 32.60 63.55 32.55Q62.95 33.35 62.30 34.15Q61.65 34.95 60.75 35.80Q58.70 37.80 57.15 37.80Q54.80 37.80 54.80 32.60Q54.80 32.20 54.80 31.75Q54.80 31.30 54.85 30.80Q53.95 31.60 52.88 33.13Q51.80 34.65 50.80 36.55Q50.05 37.95 49.15 37.95Q48.85 37.95 48.70 37.75Q48.55 37.20 48.55 36.35Q48.55 35.70 48.70 34.33Q48.85 32.95 49.20 31Q49.35 30.10 49.45 29.45Q49.55 28.80 49.55 28.55Q49.55 28.15 49.40 28.15Q49 28.50 48.23 29.42Q47.45 30.35 46.65 31.40Q45.65 32.75 44.52 34.33Q43.40 35.90 42.25 37.75Q41.95 38.20 41.75 38.20ZM55.65 53.45Q54.40 53.45 54.40 51.60Q54.40 50.35 55.50 48.08Q56.60 45.80 58.90 42.50Q60.45 40.25 62.10 38.05Q63.75 35.85 65.35 33.65L65.35 33.35Q65.35 32.45 65.35 31.65Q65.35 30.85 65.30 30.20Q64.95 30.70 64.30 31.70Q63.65 32.70 62.60 33.95Q62.55 34 62.50 34Q62.25 34 62.25 33.55Q62.25 33.20 62.45 32.95Q63.60 31.35 64.28 29.60Q64.95 27.85 64.95 27Q64.95 26.55 64.70 26.20L64.40 25.85Q64.40 25.65 64.78 25.50Q65.15 25.35 65.95 25.45Q66.65 25.55 66.97 26.05Q67.30 26.55 67.30 28.25Q67.30 29.05 67.25 30.18Q67.20 31.30 67 32.65Q67.70 31.35 68.72 29.73Q69.75 28.10 70.60 27.05Q73.15 23.85 74.95 23.85Q76.55 23.85 76.55 26.20Q76.55 29.10 74.50 33.05Q73.70 34.60 72.50 36.13Q71.30 37.65 69.95 38.50Q72.15 38.45 74.65 36.95Q77.15 35.45 79.60 31.75Q79.75 31.50 79.90 31.50Q80.10 31.50 80.10 31.80Q80.10 32.25 79.65 32.90Q78.85 34.05 78.22 34.77Q77.60 35.50 76.97 36.08Q76.35 36.65 75.45 37.35Q73.85 38.55 72.25 39.05Q70.65 39.55 69.20 39.55Q68.30 39.55 67.47 39.38Q66.65 39.20 65.95 38.95Q65.15 41 64.15 43.05Q63.15 45.10 61.75 47.35Q58.05 53.45 55.65 53.45M68.60 38.40Q69.70 37.90 70.72 36.58Q71.75 35.25 72.60 33.45Q74.35 29.80 74.35 27.25Q74.35 25.70 73.50 25.70Q73.30 25.70 73 25.80Q72.10 26.20 71.13 27.42Q70.15 28.65 69.20 30.45Q68.45 31.85 67.70 33.50Q66.95 35.15 66.50 36.65Q67.05 36.65 67.72 37.23Q68.40 37.80 68.60 38.40M56.45 51.70Q58.70 51.70 62.50 44.50Q63 43.55 63.55 41.90Q64.10 40.25 64.65 37.95Q64.60 37.85 64.60 37.70Q64.60 37.55 64.60 37.45Q64.60 36.85 64.90 36.35Q64.85 36.30 64.80 36.30Q64.60 36.30 64.25 36.80L60.65 42.10Q60.15 42.85 59.48 43.98Q58.80 45.10 58 46.65Q56.15 50.15 56.15 51.25Q56.15 51.70 56.45 51.70ZM87.75 38.85Q84.95 38.85 84.95 35.35Q84.95 34.50 85.70 32.20Q84 34.75 83.45 35.35Q81.80 37.30 80.50 37.30Q78.85 37.30 78.85 34.50Q78.85 32.90 79.90 30.65Q81.10 28.05 82.40 28.05Q83.15 28.05 83.15 28.45Q83.15 28.50 82.90 28.95Q82.65 29.40 81.90 30.70Q80.60 33 80.60 34.15Q80.60 35.75 81.55 35.75Q82.30 35.75 83.80 33.95Q85.30 32.15 87.30 28.45L88.35 26.50Q88.75 26.10 89.10 26.10Q89.55 26.10 89.90 26.45Q90.30 26.85 90.30 27.35Q90.30 27.30 89.82 28.25Q89.35 29.20 88.55 30.70Q86.75 34.05 86.75 35.95Q86.75 37.70 88.40 37.70Q89.75 37.70 91.60 36.10Q92.80 35.05 94.30 33.10Q94.85 32.40 95.22 31.95Q95.60 31.50 95.65 31.50Q95.80 31.50 95.80 31.80Q95.80 32.10 95.50 32.65Q94.05 35 92.25 36.65Q89.80 38.85 87.75 38.85ZM98.85 39.15Q96.50 39.15 94.60 37.45Q92.65 35.70 92.65 33.45Q92.65 32 93.45 32Q93.95 32 94.50 32.70Q95.20 32.10 97 28.95Q97.80 27.60 98.75 26.17Q99.70 24.75 100.80 23.77Q101.90 22.80 103.10 22.80Q104.05 22.80 104.70 23.25Q105.45 23.70 105.45 24.35Q105.45 24.75 104.30 24.75Q103.20 24.75 102.20 25.45Q101.25 26.20 101.25 27.30Q101.25 27.70 101.40 28.15L102.65 31.40Q103.05 32.35 103.17 33.23Q103.30 34.10 103.30 34.80Q106.20 34.35 108.25 31.85Q108.35 31.70 108.50 31.70Q108.80 31.70 108.80 32.10Q108.80 32.20 108.78 32.30Q108.75 32.40 108.70 32.50Q107.05 35.10 103.15 35.85Q103 36.65 102.60 37.25Q102.20 37.85 101.65 38.25Q100.40 39.15 98.85 39.15M101.55 35.05L101.55 34.55Q101.55 34 101.33 33.05Q101.10 32.10 100.65 30.60Q100.20 29.10 99.97 27.88Q99.75 26.65 99.80 26.30Q98.50 28.40 97.22 30.27Q95.95 32.15 94.95 33.30Q96.50 34.05 98.25 34.50Q100 34.95 101.55 35.05M98.20 37.75Q99.20 37.75 100.17 37.38Q101.15 37 101.50 36Q99.25 36 97.33 35.55Q95.40 35.10 94.25 34.15L93.95 34.45Q95.30 37.75 98.20 37.75ZM116.60 41.80L116.60 13.75Q116.70 13.55 116.95 13.32Q117.20 13.10 117.55 13.10Q117.95 13.10 118.30 13.50L118.30 41.55Q118.15 42.15 117.45 42.15Q116.95 42.15 116.60 41.80ZM129.85 51.30Q122.45 51.30 122.45 45.20Q122.45 36.95 138.35 30.45Q137.75 29.45 137.75 28.70Q137.75 22.90 144.85 17.60Q150.55 13.35 157.25 11.30Q157.40 10.40 158 10.40Q158.95 10.40 159.45 11.50Q163.35 11.85 163.35 14Q163.35 14.65 162.70 15.60Q162.05 16.55 161.35 16.55Q161 16.55 161 16.20Q161 16.10 161.35 15.40Q161.70 14.70 161.70 14.10Q161.70 12.70 159.95 12.70Q159.65 12.70 159.50 12.75Q159.45 13.40 159.28 14.38Q159.10 15.35 158.70 17.50Q158.40 19.05 158.03 20.88Q157.65 22.70 157.15 24.85Q157.45 24.80 157.75 24.80Q158.05 24.80 158.30 24.80Q160.85 24.80 160.85 25.65Q160.85 26.15 160.05 26.15Q159.95 26.15 159.75 26.15Q159.55 26.15 159.30 26.10Q159.05 26.05 158.82 26.05Q158.60 26.05 158.45 26.05Q157.95 26.05 157.55 26.07Q157.15 26.10 156.80 26.15Q152.60 42.50 140 48.90Q135.30 51.30 129.85 51.30M140 29.80Q142.10 29 144.40 28.23Q146.70 27.45 149.20 26.75Q150.65 25.40 151.93 23.82Q153.20 22.25 154.35 20.30Q156.80 16.25 157.25 12.60Q148.95 14.95 144.05 20.40Q142.55 22.05 141.30 24.30Q139.80 26.90 139.80 28.80Q139.80 29.40 140 29.80M151.55 26.10Q152.35 25.90 153.18 25.70Q154 25.50 154.85 25.30L155.85 20.20Q154.90 21.80 153.82 23.27Q152.75 24.75 151.55 26.10M131.20 49.65Q135.75 49.65 139.65 47.95Q150.50 43.30 154.50 26.60Q153.15 26.95 152 27.27Q150.85 27.60 149.90 27.85Q145.35 32.35 141.45 32.35Q140 32.35 139.10 31.45Q124.45 37.30 124.45 44.55Q124.45 49.65 131.20 49.65M141.65 30.70Q143.95 30.70 146.80 28.75Q145.25 29.20 143.82 29.67Q142.40 30.15 141.10 30.65Q141.25 30.70 141.65 30.70ZM167.30 38.85Q164.50 38.85 164.50 35.35Q164.50 34.50 165.25 32.20Q163.55 34.75 163 35.35Q161.35 37.30 160.05 37.30Q158.40 37.30 158.40 34.50Q158.40 32.90 159.45 30.65Q160.65 28.05 161.95 28.05Q162.70 28.05 162.70 28.45Q162.70 28.50 162.45 28.95Q162.20 29.40 161.45 30.70Q160.15 33 160.15 34.15Q160.15 35.75 161.10 35.75Q161.85 35.75 163.35 33.95Q164.85 32.15 166.85 28.45L167.90 26.50Q168.30 26.10 168.65 26.10Q169.10 26.10 169.45 26.45Q169.85 26.85 169.85 27.35Q169.85 27.30 169.38 28.25Q168.90 29.20 168.10 30.70Q166.30 34.05 166.30 35.95Q166.30 37.70 167.95 37.70Q169.30 37.70 171.15 36.10Q172.35 35.05 173.85 33.10Q174.40 32.40 174.78 31.95Q175.15 31.50 175.20 31.50Q175.35 31.50 175.35 31.80Q175.35 32.10 175.05 32.65Q173.60 35 171.80 36.65Q169.35 38.85 167.30 38.85ZM179 25.25Q177.80 25.25 177.80 24.05Q177.80 23.45 178.25 23Q178.75 22.50 179.40 22.50Q180.60 22.50 180.60 23.70Q180.60 24.30 180.15 24.75Q179.65 25.25 179 25.25M176.10 38.85Q173.35 38.85 173.35 35.90Q173.35 34.50 174.35 31.80Q174.80 30.55 175.28 29.67Q175.75 28.80 176.25 28.05Q176.55 27.60 176.95 27.60Q177.35 27.60 177.75 28Q178 28.25 178 28.65Q178 29 177.80 29.35Q176.70 31.05 176 32.77Q175.30 34.50 175.30 35.85Q175.30 37.65 176.60 37.65Q177.30 37.65 178.20 37.27Q179.10 36.90 180 36.10Q180.60 35.55 181.28 34.85Q181.95 34.15 182.65 33.20Q183.95 31.60 183.95 31.60Q184.20 31.60 184.20 32Q184.20 32.40 183.85 32.80Q179.30 38.85 176.10 38.85ZM183.35 38Q181.80 38 181.80 36.30Q181.80 33.20 184.95 29.15Q186.60 27 188.20 25.92Q189.80 24.85 191.35 25Q192.20 22.10 193.10 19.60Q194 17.10 195.05 14.95Q198.45 7.95 201.70 7.95Q203.80 7.95 203.80 10.35Q203.80 15.60 191.85 29.65Q191.55 31.35 191.55 32.95Q191.55 36.75 193.15 36.75Q194.20 36.75 196.20 34.35Q198.20 31.90 198.40 31.90Q198.55 31.90 198.55 32.15Q198.55 32.45 198.30 32.85Q195.20 37.90 192.20 37.90Q189.60 37.90 189.60 33.95Q189.60 32.70 189.90 31.05Q186 38 183.35 38M192.15 28.20Q201.85 15.05 201.85 10.45Q201.85 9.35 200.95 9.35Q198.45 9.35 195.40 17.50Q193.35 22.90 192.15 28.20M184.20 36.45Q185.35 36.45 187.05 34.20Q187.40 33.80 187.93 32.92Q188.45 32.05 189.20 30.75Q190.05 29.30 190.43 28.45Q190.80 27.60 190.80 27.35Q190.80 27.25 190.78 27.25Q190.75 27.25 190.70 27.20Q190.65 27.05 190.15 27.05Q188.15 27.05 185.80 30.15Q183.45 33.25 183.45 35.35Q183.45 36.45 184.20 36.45ZM201 38.30Q199.35 38.30 198.10 37.35Q196.85 36.40 196.85 34.15Q196.85 32.80 197.45 31.23Q198.05 29.65 199.08 28.25Q200.10 26.85 201.35 25.95Q202.60 25.05 203.90 25.05Q204.40 25.05 204.78 25.40Q205.15 25.75 205.15 26.45Q205.15 28 202.80 30.20Q201.85 31.10 200.83 31.80Q199.80 32.50 198.95 32.80Q198.75 33.45 198.75 34.30Q198.75 35.45 199.30 36.40Q199.85 37.35 201.05 37.35Q202.55 37.35 203.80 36.50Q205.05 35.65 206.10 34.42Q207.15 33.20 207.95 32.15Q208.30 31.65 208.65 31.65Q208.85 31.65 208.85 31.85Q208.85 31.95 208.80 32.08Q208.75 32.20 208.70 32.30Q207.85 33.50 206.75 34.90Q205.65 36.30 204.25 37.30Q202.85 38.30 201 38.30M199.30 31.80Q200.60 31.25 202 29.85Q203.65 28.25 203.65 27.05Q203.65 26.45 203.05 26.45Q202.25 26.45 200.85 28.75Q199.60 30.65 199.30 31.80Z"/></g></g></svg>