<svg xmlns="http://www.w3.org/2000/svg" viewBox="0 8.859999656677246 355.80999755859375 46.93000030517578" data-asc="0.9052734375"><g fill="#c6d30d"><g fill="#c6d30d" transform="translate(0, 0)"><path d="M26.90 32.71L31.64 33.91Q30.15 39.75 26.28 42.81Q22.41 45.87 16.82 45.87Q11.04 45.87 7.41 43.52Q3.78 41.16 1.89 36.69Q0 32.23 0 27.10Q0 21.51 2.14 17.35Q4.27 13.18 8.22 11.02Q12.16 8.86 16.89 8.86Q22.27 8.86 25.93 11.60Q29.59 14.33 31.03 19.29L26.37 20.39Q25.12 16.48 22.75 14.70Q20.39 12.92 16.80 12.92Q12.67 12.92 9.90 14.89Q7.13 16.87 6.01 20.20Q4.88 23.54 4.88 27.08Q4.88 31.64 6.21 35.05Q7.54 38.45 10.35 40.14Q13.16 41.82 16.43 41.82Q20.41 41.82 23.17 39.53Q25.93 37.23 26.90 32.71ZM53.83 42.07Q51.39 44.14 49.13 45.00Q46.88 45.85 44.29 45.85Q40.01 45.85 37.72 43.76Q35.42 41.67 35.42 38.43Q35.42 36.52 36.29 34.95Q37.16 33.37 38.56 32.42Q39.97 31.47 41.72 30.98Q43.02 30.64 45.63 30.32Q50.95 29.69 53.47 28.81Q53.49 27.91 53.49 27.66Q53.49 24.98 52.25 23.88Q50.56 22.39 47.24 22.39Q44.14 22.39 42.66 23.47Q41.19 24.56 40.48 27.32L36.18 26.73Q36.77 23.97 38.11 22.28Q39.45 20.58 41.99 19.67Q44.53 18.75 47.88 18.75Q51.20 18.75 53.27 19.53Q55.35 20.31 56.32 21.50Q57.30 22.68 57.69 24.49Q57.91 25.61 57.91 28.54L57.91 34.40Q57.91 40.53 58.19 42.15Q58.47 43.77 59.30 45.26L54.71 45.26Q54.03 43.90 53.83 42.07M53.47 32.25Q51.07 33.23 46.29 33.91Q43.58 34.30 42.46 34.79Q41.33 35.28 40.72 36.22Q40.11 37.16 40.11 38.31Q40.11 40.06 41.44 41.24Q42.77 42.41 45.34 42.41Q47.88 42.41 49.85 41.30Q51.83 40.19 52.76 38.26Q53.47 36.77 53.47 33.86L53.47 32.25ZM64.72 45.26L64.72 19.34L68.65 19.34L68.65 22.97Q69.87 21.07 71.90 19.91Q73.93 18.75 76.51 18.75Q79.39 18.75 81.24 19.95Q83.08 21.14 83.84 23.29Q86.91 18.75 91.85 18.75Q95.70 18.75 97.78 20.89Q99.85 23.02 99.85 27.47L99.85 45.26L95.48 45.26L95.48 28.93Q95.48 26.29 95.06 25.13Q94.63 23.97 93.51 23.27Q92.38 22.56 90.87 22.56Q88.13 22.56 86.33 24.38Q84.52 26.20 84.52 30.20L84.52 45.26L80.13 45.26L80.13 28.42Q80.13 25.49 79.05 24.02Q77.98 22.56 75.54 22.56Q73.68 22.56 72.11 23.54Q70.53 24.51 69.82 26.39Q69.12 28.27 69.12 31.81L69.12 45.26L64.72 45.26ZM106.37 55.20L106.37 19.34L110.38 19.34L110.38 22.71Q111.79 20.73 113.57 19.74Q115.36 18.75 117.90 18.75Q121.22 18.75 123.75 20.46Q126.29 22.17 127.59 25.28Q128.88 28.39 128.88 32.10Q128.88 36.08 127.45 39.27Q126.03 42.46 123.30 44.15Q120.58 45.85 117.58 45.85Q115.38 45.85 113.64 44.92Q111.89 43.99 110.77 42.58L110.77 55.20L106.37 55.20M110.35 32.45Q110.35 37.45 112.38 39.84Q114.40 42.24 117.29 42.24Q120.21 42.24 122.30 39.76Q124.39 37.28 124.39 32.08Q124.39 27.12 122.35 24.66Q120.31 22.19 117.48 22.19Q114.67 22.19 112.51 24.82Q110.35 27.44 110.35 32.45ZM151.17 45.26L151.17 41.46Q148.14 45.85 142.94 45.85Q140.65 45.85 138.66 44.97Q136.67 44.09 135.71 42.76Q134.74 41.43 134.35 39.50Q134.08 38.21 134.08 35.40L134.08 19.34L138.48 19.34L138.48 33.72Q138.48 37.16 138.75 38.35Q139.16 40.09 140.50 41.08Q141.85 42.07 143.82 42.07Q145.80 42.07 147.53 41.05Q149.27 40.04 149.99 38.29Q150.71 36.55 150.71 33.23L150.71 19.34L155.10 19.34L155.10 45.26L151.17 45.26ZM160.23 37.52L164.58 36.84Q164.94 39.45 166.61 40.84Q168.29 42.24 171.29 42.24Q174.32 42.24 175.78 41.00Q177.25 39.77 177.25 38.11Q177.25 36.62 175.95 35.77Q175.05 35.18 171.46 34.28Q166.63 33.06 164.76 32.17Q162.89 31.27 161.93 29.70Q160.96 28.13 160.96 26.22Q160.96 24.49 161.76 23.01Q162.55 21.53 163.92 20.56Q164.94 19.80 166.71 19.27Q168.48 18.75 170.51 18.75Q173.56 18.75 175.87 19.63Q178.17 20.51 179.27 22.01Q180.37 23.51 180.79 26.03L176.49 26.61Q176.20 24.61 174.79 23.49Q173.39 22.36 170.83 22.36Q167.80 22.36 166.50 23.36Q165.21 24.37 165.21 25.71Q165.21 26.56 165.75 27.25Q166.28 27.95 167.43 28.42Q168.09 28.66 171.31 29.54Q175.98 30.79 177.82 31.58Q179.66 32.37 180.71 33.89Q181.76 35.40 181.76 37.65Q181.76 39.84 180.48 41.78Q179.20 43.73 176.78 44.79Q174.37 45.85 171.31 45.85Q166.26 45.85 163.61 43.75Q160.96 41.65 160.23 37.52ZM202.17 55.79L202.17 8.86L206.01 8.86L206.01 55.79L202.17 55.79ZM245.07 31.23L245.07 27.03L260.23 27.00L260.23 40.28Q256.74 43.07 253.03 44.47Q249.32 45.87 245.41 45.87Q240.14 45.87 235.83 43.62Q231.52 41.36 229.32 37.08Q227.12 32.81 227.12 27.54Q227.12 22.31 229.31 17.79Q231.49 13.26 235.60 11.06Q239.70 8.86 245.04 8.86Q248.93 8.86 252.06 10.12Q255.20 11.38 256.98 13.62Q258.76 15.87 259.69 19.48L255.42 20.65Q254.61 17.92 253.42 16.36Q252.22 14.79 250 13.85Q247.78 12.92 245.07 12.92Q241.82 12.92 239.45 13.90Q237.08 14.89 235.63 16.50Q234.18 18.12 233.37 20.04Q232.01 23.36 232.01 27.25Q232.01 32.03 233.65 35.25Q235.30 38.48 238.45 40.04Q241.60 41.60 245.14 41.60Q248.22 41.60 251.15 40.42Q254.08 39.23 255.59 37.89L255.59 31.23L245.07 31.23ZM283.64 45.26L283.64 41.46Q280.62 45.85 275.42 45.85Q273.12 45.85 271.13 44.97Q269.14 44.09 268.18 42.76Q267.21 41.43 266.82 39.50Q266.55 38.21 266.55 35.40L266.55 19.34L270.95 19.34L270.95 33.72Q270.95 37.16 271.22 38.35Q271.63 40.09 272.97 41.08Q274.32 42.07 276.29 42.07Q278.27 42.07 280.00 41.05Q281.74 40.04 282.46 38.29Q283.18 36.55 283.18 33.23L283.18 19.34L287.57 19.34L287.57 45.26L283.64 45.26ZM294.48 14.53L294.48 9.47L298.88 9.47L298.88 14.53L294.48 14.53M294.48 45.26L294.48 19.34L298.88 19.34L298.88 45.26L294.48 45.26ZM322.39 45.26L322.39 41.99Q319.92 45.85 315.14 45.85Q312.04 45.85 309.44 44.14Q306.84 42.43 305.41 39.37Q303.98 36.30 303.98 32.32Q303.98 28.44 305.27 25.28Q306.57 22.12 309.16 20.43Q311.74 18.75 314.94 18.75Q317.29 18.75 319.12 19.74Q320.95 20.73 322.09 22.31L322.09 9.47L326.46 9.47L326.46 45.26L322.39 45.26M308.50 32.32Q308.50 37.30 310.60 39.77Q312.70 42.24 315.55 42.24Q318.43 42.24 320.45 39.88Q322.46 37.52 322.46 32.69Q322.46 27.37 320.41 24.88Q318.36 22.39 315.36 22.39Q312.43 22.39 310.46 24.78Q308.50 27.17 308.50 32.32ZM351.12 36.91L355.66 37.48Q354.59 41.46 351.68 43.65Q348.78 45.85 344.26 45.85Q338.57 45.85 335.24 42.35Q331.91 38.84 331.91 32.52Q331.91 25.98 335.28 22.36Q338.65 18.75 344.02 18.75Q349.22 18.75 352.51 22.29Q355.81 25.83 355.81 32.25Q355.81 32.64 355.79 33.42L336.45 33.42Q336.69 37.70 338.87 39.97Q341.04 42.24 344.29 42.24Q346.70 42.24 348.41 40.97Q350.12 39.70 351.12 36.91M336.69 29.81L351.17 29.81Q350.88 26.54 349.51 24.90Q347.41 22.36 344.07 22.36Q341.04 22.36 338.98 24.39Q336.91 26.42 336.69 29.81Z"/></g></g></svg>