<svg xmlns="http://www.w3.org/2000/svg" viewBox="0 18.700000762939453 249.14999389648438 50.45000076293945" data-asc="1.193"><g fill="#0091eb"><g fill="#0091eb" transform="translate(0, 0)"><path d="M9.85 60.20Q5.85 60.20 3.72 58.55Q1.60 56.90 0.80 54.13Q0 51.35 0 48.00L0 30.80Q0 27.30 0.85 24.58Q1.70 21.85 3.85 20.28Q6 18.70 9.85 18.70Q13.40 18.70 15.40 20.10Q17.40 21.50 18.25 24.08Q19.10 26.65 19.10 30.10L19.10 32.15L16.50 32.15L16.50 30.10Q16.50 27.20 15.95 25.18Q15.40 23.15 13.95 22.05Q12.50 20.95 9.85 20.95Q6.95 20.95 5.40 22.15Q3.85 23.35 3.30 25.50Q2.75 27.65 2.75 30.50L2.75 48.40Q2.75 51.40 3.35 53.53Q3.95 55.65 5.50 56.80Q7.05 57.95 9.85 57.95Q12.55 57.95 14.00 56.80Q15.45 55.65 15.97 53.58Q16.50 51.50 16.50 48.75L16.50 46.30L19.10 46.30L19.10 48.30Q19.10 51.75 18.30 54.45Q17.50 57.15 15.50 58.68Q13.50 60.20 9.85 60.20ZM28.85 60.10Q27.10 60.10 25.80 59.30Q24.50 58.50 23.78 57.08Q23.05 55.65 23.05 53.80Q23.05 51.95 23.53 50.58Q24.00 49.20 25.25 48.00Q26.50 46.80 28.83 45.48Q31.15 44.15 34.85 42.40L34.85 40.35Q34.85 37.20 34.48 35.45Q34.10 33.70 33.23 33Q32.35 32.30 30.85 32.30Q29.70 32.30 28.65 32.70Q27.60 33.10 26.93 34.28Q26.25 35.45 26.25 37.75L26.25 38.50L23.65 38.50Q23.65 34.35 25.33 32.33Q27.00 30.30 30.95 30.30Q34.60 30.30 36.05 32.60Q37.50 34.90 37.50 40.05L37.50 54.60Q37.50 55.00 37.53 56.13Q37.55 57.25 37.58 58.30Q37.60 59.35 37.65 59.65L35.35 59.65Q35.25 58.60 35.10 57.45Q34.95 56.30 34.90 55.80Q34.25 57.60 32.65 58.85Q31.05 60.10 28.85 60.10M29.50 57.90Q30.75 57.90 31.75 57.33Q32.75 56.75 33.55 55.83Q34.35 54.90 34.85 53.85L34.85 44.35Q32.20 45.75 30.43 46.75Q28.65 47.75 27.63 48.65Q26.60 49.55 26.15 50.68Q25.70 51.80 25.70 53.40Q25.70 56.00 26.90 56.95Q28.10 57.90 29.50 57.90ZM42.95 59.65L42.95 30.75L45.45 30.75L45.45 33.80Q46.85 32.10 48.60 31.18Q50.35 30.25 52.25 30.25Q53.70 30.25 54.98 31.05Q56.25 31.85 56.75 34.10Q58.20 32.25 60.00 31.25Q61.80 30.25 63.80 30.25Q65.00 30.25 66.10 30.80Q67.20 31.35 67.90 32.78Q68.60 34.20 68.60 36.80L68.60 59.65L66.05 59.65L66.05 36.75Q66.05 33.95 65.15 33.05Q64.25 32.15 62.95 32.15Q61.40 32.15 59.85 33.08Q58.30 34 56.95 35.55Q57.00 35.80 57.03 36.13Q57.05 36.45 57.05 36.80L57.05 59.65L54.50 59.65L54.50 36.75Q54.50 33.95 53.60 33.05Q52.70 32.15 51.40 32.15Q49.90 32.15 48.35 33.08Q46.80 34 45.45 35.50L45.45 59.65L42.95 59.65ZM74.10 69.15L74.10 30.75L76.75 30.75L76.75 33.20Q77.60 32.15 78.95 31.23Q80.30 30.30 82.30 30.30Q84.30 30.30 85.58 31.13Q86.85 31.95 87.58 33.53Q88.30 35.10 88.58 37.30Q88.85 39.50 88.85 42.20L88.85 47.75Q88.85 51.80 88.23 54.55Q87.60 57.30 86.13 58.70Q84.65 60.10 82.05 60.10Q80.20 60.10 78.88 59.15Q77.55 58.20 76.75 57.25L76.75 69.15L74.10 69.15M81.75 58.05Q83.55 58.05 84.53 56.98Q85.50 55.90 85.85 53.63Q86.20 51.35 86.20 47.85L86.20 42.20Q86.20 38.75 85.88 36.58Q85.55 34.40 84.60 33.38Q83.65 32.35 81.75 32.35Q80.15 32.35 78.85 33.28Q77.55 34.20 76.75 35.05L76.75 55.45Q77.60 56.45 78.90 57.25Q80.20 58.05 81.75 58.05ZM98.40 60.10Q97.10 60.10 96.08 59.48Q95.05 58.85 94.45 57.48Q93.85 56.10 93.85 53.80L93.85 30.75L96.50 30.75L96.50 53.50Q96.50 56.15 97.33 57.10Q98.15 58.05 99.55 58.05Q101.10 58.05 102.65 57.08Q104.20 56.10 105.50 54.55L105.50 30.75L108.10 30.75L108.10 59.65L105.50 59.65L105.50 56.25Q104.10 58.00 102.28 59.05Q100.45 60.10 98.40 60.10ZM120.40 60.10Q117.00 60.10 115.00 57.88Q113.00 55.65 112.70 51.85L114.95 51.20Q115.20 54.85 116.63 56.48Q118.05 58.10 120.50 58.10Q122.70 58.10 123.90 56.88Q125.10 55.65 125.10 53.40Q125.10 51.85 124.08 50.18Q123.05 48.50 120.85 46.65L117.50 43.80Q115.35 41.95 114.35 40.28Q113.35 38.60 113.35 36.45Q113.35 34.45 114.18 33.10Q115.00 31.75 116.48 31.03Q117.95 30.30 119.90 30.30Q123.15 30.30 124.75 32.35Q126.35 34.40 126.45 37.85L124.50 38.45Q124.45 36.20 123.88 34.85Q123.30 33.50 122.33 32.90Q121.35 32.30 120.05 32.30Q118.15 32.30 116.98 33.28Q115.80 34.25 115.80 36.15Q115.80 37.75 116.43 38.93Q117.05 40.10 118.75 41.65L122.20 44.70Q123.50 45.80 124.70 47.05Q125.90 48.30 126.68 49.83Q127.45 51.35 127.45 53.45Q127.45 55.55 126.58 57.03Q125.70 58.50 124.13 59.30Q122.55 60.10 120.40 60.10ZM142.10 66.70L142.10 19.15L144.60 19.15L144.60 66.70L142.10 66.70ZM170.50 60.20Q166.65 60.20 164.55 58.63Q162.45 57.05 161.62 54.25Q160.80 51.45 160.80 47.90L160.80 30.70Q160.80 27.15 161.62 24.45Q162.45 21.75 164.60 20.23Q166.75 18.70 170.65 18.70Q174.20 18.70 176.22 20.10Q178.25 21.50 179.12 24.10Q180.00 26.70 180.00 30.25L180.00 31.65L177.40 31.65L177.40 30.10Q177.40 27.10 176.80 25.08Q176.20 23.05 174.75 22.00Q173.30 20.95 170.65 20.95Q167.70 20.95 166.15 22.18Q164.60 23.40 164.07 25.58Q163.55 27.75 163.55 30.60L163.55 48.25Q163.55 51.20 164.15 53.38Q164.75 55.55 166.30 56.75Q167.85 57.95 170.70 57.95Q173.40 57.95 174.87 56.80Q176.35 55.65 176.92 53.50Q177.50 51.35 177.50 48.40L177.50 42.45L171.05 42.45L171.05 40.35L180.05 40.35L180.05 59.65L178.30 59.65L177.90 55.10Q177.15 57.45 175.42 58.83Q173.70 60.20 170.50 60.20ZM190.55 60.10Q189.25 60.10 188.22 59.48Q187.20 58.85 186.60 57.48Q186.00 56.10 186.00 53.80L186.00 30.75L188.65 30.75L188.65 53.50Q188.65 56.15 189.47 57.10Q190.30 58.05 191.70 58.05Q193.25 58.05 194.80 57.08Q196.35 56.10 197.65 54.55L197.65 30.75L200.25 30.75L200.25 59.65L197.65 59.65L197.65 56.25Q196.25 58.00 194.42 59.05Q192.60 60.10 190.55 60.10ZM206.40 59.65L206.40 30.75L209.10 30.75L209.10 59.65L206.40 59.65M206.40 26.95L206.40 22.35L209.10 22.35L209.10 26.95L206.40 26.95ZM221.70 60.10Q217.95 60.10 216.42 57.23Q214.90 54.35 214.90 47.80L214.90 42.65Q214.90 38.55 215.45 35.83Q216.00 33.10 217.45 31.70Q218.90 30.30 221.55 30.30Q223.40 30.30 224.70 31.13Q226.00 31.95 226.80 32.95L226.80 19.15L229.45 19.15L229.45 59.65L226.80 59.65L226.80 57.45Q226.00 58.40 224.72 59.25Q223.45 60.10 221.70 60.10M222.05 58.05Q223.50 58.05 224.72 57.30Q225.95 56.55 226.80 55.60L226.80 34.85Q226.00 34.05 224.77 33.20Q223.55 32.35 222.00 32.35Q219.25 32.35 218.40 34.65Q217.55 36.95 217.55 42L217.55 48.00Q217.55 51.50 217.92 53.73Q218.30 55.95 219.27 57.00Q220.25 58.05 222.05 58.05ZM242.00 60.10Q239.70 60.10 238.05 59.18Q236.40 58.25 235.52 55.83Q234.65 53.40 234.65 48.95L234.65 41.25Q234.65 36.70 235.55 34.35Q236.45 32 238.12 31.15Q239.80 30.30 242.05 30.30Q244.75 30.30 246.30 31.45Q247.85 32.60 248.50 35.13Q249.15 37.65 249.15 41.80L249.15 44.55L237.30 44.55L237.30 49.15Q237.30 52.60 237.77 54.55Q238.25 56.50 239.30 57.30Q240.35 58.10 242.00 58.10Q243.05 58.10 244.10 57.75Q245.15 57.40 245.85 56.10Q246.55 54.80 246.55 52.05L246.55 49.90L249.15 49.90L249.15 51.80Q249.15 55.50 247.62 57.80Q246.10 60.10 242.00 60.10M237.30 42.95L246.55 42.95L246.55 40.70Q246.55 38.10 246.27 36.23Q246.00 34.35 245.05 33.33Q244.10 32.30 242.05 32.30Q240.45 32.30 239.37 32.98Q238.30 33.65 237.80 35.48Q237.30 37.30 237.30 40.75L237.30 42.95Z"/></g></g></svg>