<svg xmlns="http://www.w3.org/2000/svg" viewBox="0 12.699999809265137 319.1000061035156 69.35000610351562" data-asc="1.13"><g fill="#c6d30d"><g fill="#c6d30d" transform="translate(0, 0)"><path d="M31.25 63.80Q27.65 63.80 25.23 62.62Q22.80 61.45 21.40 59.45Q20 57.45 19.38 55.02Q18.75 52.60 18.75 50.05Q18.75 45.70 20.40 41.55Q22.05 37.40 24.92 33.65Q27.80 29.90 31.45 26.77Q35.10 23.65 39.10 21.35Q43.10 19.05 47.08 17.77Q51.05 16.50 54.50 16.50Q56.30 16.50 57.98 17.20Q59.65 17.90 60.73 19.42Q61.80 20.95 61.80 23.55Q61.80 26.70 60.58 30.02Q59.35 33.35 57.25 36.50Q55.15 39.65 52.53 42.42Q49.90 45.20 47.08 47.32Q44.25 49.45 41.60 50.65Q38.95 51.85 36.80 51.85Q34.95 51.85 33.58 50.47Q32.20 49.10 32.20 46.35Q32.20 44.05 33.18 41.52Q34.15 39.00 35.75 36.55Q37.35 34.10 39.33 31.92Q41.30 29.75 43.33 28.07Q45.35 26.40 47.18 25.42Q49.00 24.45 50.25 24.45Q51.55 24.45 52.30 25.15Q53.05 25.85 53.05 27.00Q53.05 29.15 51.55 31.65Q50.05 34.15 47.38 36.72Q44.70 39.30 41.18 41.65Q37.65 44.00 33.58 45.87Q29.50 47.75 25.17 48.85Q20.85 49.95 16.60 49.95Q13.20 49.95 10.20 49.20Q7.20 48.45 4.90 47.05Q2.60 45.65 1.30 43.70Q0 41.75 0 39.35Q0 36.25 1.75 33.65Q3.50 31.05 6.72 29.17Q9.95 27.30 14.35 26.27Q18.75 25.25 24.05 25.25Q29.70 25.25 34.98 26.67Q40.25 28.10 44.78 30.55Q49.30 33.00 52.70 36.10L52.35 36.55Q49.05 33.45 44.55 31.02Q40.05 28.60 34.83 27.20Q29.60 25.80 24.05 25.80Q19.15 25.80 14.88 26.77Q10.60 27.75 7.38 29.52Q4.15 31.30 2.35 33.80Q0.55 36.30 0.55 39.40Q0.55 42.40 2.75 44.65Q4.95 46.90 8.63 48.15Q12.30 49.40 16.70 49.40Q20.80 49.40 25.02 48.32Q29.25 47.25 33.25 45.42Q37.25 43.60 40.75 41.30Q44.25 39.00 46.88 36.50Q49.50 34.00 51.00 31.55Q52.50 29.10 52.50 27.00Q52.50 26.00 51.90 25.47Q51.30 24.95 50.30 24.95Q49.15 24.95 47.40 25.90Q45.65 26.85 43.65 28.47Q41.65 30.10 39.73 32.20Q37.80 34.30 36.20 36.67Q34.60 39.05 33.65 41.47Q32.70 43.90 32.70 46.10Q32.70 48.55 33.83 49.92Q34.95 51.30 36.80 51.30Q38.90 51.30 41.50 50.10Q44.10 48.90 46.85 46.82Q49.60 44.75 52.18 42.00Q54.75 39.25 56.80 36.15Q58.85 33.05 60.05 29.82Q61.25 26.60 61.25 23.55Q61.25 21.15 60.35 19.75Q59.45 18.35 58.00 17.77Q56.55 17.20 54.85 17.20Q52.05 17.20 48.50 18.65Q44.95 20.10 41.18 22.65Q37.40 25.20 33.88 28.62Q30.35 32.05 27.52 36.02Q24.70 40.00 23.05 44.25Q21.40 48.50 21.40 52.70Q21.40 56.15 22.50 58.50Q23.60 60.85 25.80 62.05Q28 63.25 31.25 63.25Q34.10 63.25 36.95 62.45Q39.80 61.65 42.68 60.05Q45.55 58.45 48.45 56.02Q51.35 53.60 54.30 50.40L56.45 48.05L56.95 48.05L54.75 50.50Q51.80 53.75 48.85 56.25Q45.90 58.75 42.93 60.42Q39.95 62.10 37.02 62.95Q34.10 63.80 31.25 63.80ZM55.30 56.85Q53.65 56.85 53.65 54.30Q53.65 52.60 54.65 50.70Q55.65 48.80 57.35 47.02Q59.05 45.25 61.15 43.80Q63.25 42.35 65.48 41.50Q67.70 40.65 69.70 40.65Q71.40 40.65 71.40 41.95Q71.40 43.15 69.85 45.02Q68.30 46.90 65.95 49.35Q64.10 51.25 62.05 52.97Q60 54.70 58.23 55.77Q56.45 56.85 55.30 56.85M55.35 56.50Q56.30 56.50 57.93 55.55Q59.55 54.60 61.58 52.92Q63.60 51.25 65.70 49.10Q68.05 46.65 69.50 44.87Q70.95 43.10 70.95 42.00Q70.95 41.15 69.85 41.15Q68.85 41.15 67.33 41.95Q65.80 42.75 64.08 44.07Q62.35 45.40 60.65 47.00Q58.95 48.60 57.55 50.25Q56.15 51.90 55.30 53.32Q54.45 54.75 54.45 55.70Q54.45 56.50 55.35 56.50M75.65 48.05L75.20 48.55Q73.15 50.90 71.03 52.82Q68.90 54.75 67.13 55.85Q65.35 56.95 64.30 56.95Q63.75 56.95 63.33 56.52Q62.90 56.10 62.90 55.45Q62.90 53.75 64.75 50.90Q66.60 48.05 69.90 44.65L70.15 44.65L73.15 41.35L77 41.35Q76.10 41.85 75.15 42.60Q74.20 43.35 73.35 44.20Q69.65 47.90 67.53 50.12Q65.40 52.35 64.50 53.60Q63.60 54.85 63.60 55.65Q63.60 56.65 64.40 56.65Q65.30 56.65 66.90 55.62Q68.50 54.60 70.53 52.80Q72.55 51.00 74.60 48.70L75.15 48.05L75.65 48.05ZM75.65 48.05L75.15 48.05L75.75 47.40Q78.55 44.30 81.10 42.42Q83.65 40.55 85.15 40.55Q85.75 40.55 86.15 40.95Q86.55 41.35 86.55 42.00Q86.55 43.40 85.38 45.15Q84.20 46.90 81.35 49.85L82 49.85L80.70 51.60L76.30 56.50L72.05 56.50Q74.40 54.80 76.85 52.60Q79.30 50.40 81.38 48.20Q83.45 46.00 84.73 44.25Q86 42.50 86 41.75Q86 40.90 85.10 40.90Q84.30 40.90 82.80 41.77Q81.30 42.65 79.58 44.12Q77.85 45.60 76.25 47.40L75.65 48.05M94.80 56.95Q94.05 56.95 93.50 56.32Q92.95 55.70 92.95 54.80Q92.95 53.40 94 51.92Q95.05 50.45 96.58 49.00Q98.10 47.55 99.63 46.20Q101.15 44.85 102.20 43.75Q103.25 42.65 103.25 41.85Q103.25 41.10 102.30 41.10Q101.40 41.10 99.85 42.05Q98.30 43.00 96.40 44.55Q94.50 46.10 92.60 47.95Q90.70 49.80 89.05 51.60L88.55 51.60Q90.20 49.75 92.18 47.85Q94.15 45.95 96.10 44.35Q98.05 42.75 99.70 41.75Q101.35 40.75 102.40 40.75Q103.10 40.75 103.73 41.25Q104.35 41.75 104.35 42.80Q104.35 44.20 103.28 45.62Q102.20 47.05 100.65 48.45Q99.10 49.85 97.53 51.17Q95.95 52.50 94.88 53.65Q93.80 54.80 93.80 55.70Q93.80 56.65 94.85 56.65Q95.85 56.65 97.68 55.52Q99.50 54.40 101.63 52.60Q103.75 50.80 105.65 48.70L106.20 48.05L106.70 48.05L106.25 48.55Q104.20 50.90 101.98 52.80Q99.75 54.70 97.85 55.82Q95.95 56.95 94.80 56.95M80.70 51.60L80.15 51.60L84.10 47.40Q86.90 44.35 89.25 42.60Q91.60 40.85 93.10 40.85Q93.65 40.85 94.05 41.22Q94.45 41.60 94.45 42.25Q94.45 43.65 93.40 45.35Q92.35 47.05 89.70 49.85L90.35 49.85L89.05 51.60L84.70 56.50L80.85 56.50Q83.10 54.80 85.40 52.62Q87.70 50.45 89.63 48.30Q91.55 46.15 92.75 44.45Q93.95 42.75 93.95 42.00Q93.95 41.15 93.05 41.15Q92.25 41.15 90.88 42.00Q89.50 42.85 87.88 44.25Q86.25 45.65 84.65 47.40L80.70 51.60ZM106.70 48.05L106.20 48.05L106.80 47.40Q110.40 43.20 114.20 39.20Q118 35.20 122 31.30L122.45 31.30Q118.65 34.95 114.90 38.97Q111.15 43.00 107.30 47.40L106.70 48.05M104.90 54.40Q105.50 55.65 106.80 55.65Q108 55.65 109.78 54.55Q111.55 53.45 113.45 51.72Q115.35 50.00 117 48.05Q118.65 46.10 119.70 44.35Q120.75 42.60 120.75 41.55Q120.75 40.85 120 40.85Q118.85 40.85 117.25 41.77Q115.65 42.70 113.90 44.10Q112.15 45.50 110.55 46.97Q108.95 48.45 107.85 49.57Q106.75 50.70 106.45 51.10L81.40 81.20L76.85 82.05Q77.65 81.45 78.85 80.30Q80.05 79.15 81.40 77.70Q82.75 76.25 84.08 74.80Q85.40 73.35 86.45 72.15Q87.50 70.95 88.05 70.30L107.35 48.05Q108 47.30 109.38 45.80Q110.75 44.30 112.50 42.35Q114.25 40.40 116.08 38.35Q117.90 36.30 119.48 34.45Q121.05 32.60 122 31.30L124.25 31.30Q123.45 31.70 122.05 33.02Q120.65 34.35 118.85 36.22Q117.05 38.10 115.13 40.27Q113.20 42.45 111.40 44.62Q109.60 46.80 108.15 48.65L108 48.35L108.60 48.35Q111.80 45.15 114 43.45Q116.20 41.75 117.65 41.12Q119.10 40.50 120.05 40.50Q120.75 40.50 121.18 41.10Q121.60 41.70 121.60 42.70Q121.60 45.00 120.23 47.35Q118.85 49.70 116.65 51.67Q114.45 53.65 111.88 54.82Q109.30 56.00 106.85 56.00Q105.15 56.00 104.45 55.00L104.90 54.40ZM129.75 41.35L133.65 41.35Q132.55 41.90 130.85 43.35Q129.15 44.80 127.30 46.62Q125.45 48.45 123.83 50.30Q122.20 52.15 121.17 53.62Q120.15 55.10 120.15 55.70Q120.15 56.65 120.95 56.65Q121.90 56.65 123.75 55.42Q125.60 54.20 127.95 52.05Q130.30 49.90 132.65 47.25L133.20 47.25Q128.85 51.85 125.63 54.40Q122.40 56.95 120.90 56.95Q120.30 56.95 119.97 56.55Q119.65 56.15 119.65 55.50Q119.65 54.20 120.58 52.47Q121.50 50.75 123.70 48.10Q125.90 45.45 129.75 41.35M129.35 56.95Q127.90 56.95 127.90 55.45Q127.90 53.55 130.30 50.22Q132.70 46.90 138 41.35L141.90 41.35Q141.25 41.70 140.32 42.37Q139.40 43.05 138.25 44.20Q134.75 47.70 132.65 49.95Q130.55 52.20 129.60 53.52Q128.65 54.85 128.65 55.65Q128.65 56.65 129.40 56.65Q130.30 56.65 131.95 55.55Q133.60 54.45 135.63 52.65Q137.65 50.85 139.60 48.70L140.20 48.05L140.70 48.05L140.25 48.55Q138.10 51.00 135.97 52.90Q133.85 54.80 132.10 55.87Q130.35 56.95 129.35 56.95ZM140.70 48.05L140.20 48.05L140.80 47.40Q145.40 42.35 148.22 39.10Q151.05 35.85 151.95 34.55L154.10 34.55Q152.10 36.05 149.15 39.02Q146.20 42.00 141.35 47.35L140.70 48.05M153.05 48.55Q150.30 51.60 147.35 53.27Q144.40 54.95 141.55 54.95Q139.40 54.95 137.95 55.32Q136.50 55.70 136.50 56.30Q136.50 56.65 137.10 56.65Q139.15 56.65 141.05 55.55Q142.95 54.45 144.50 52.60Q146.05 50.75 146.95 48.45Q147.85 46.15 147.85 43.75Q147.85 42.30 148.07 41.20Q148.30 40.10 149.02 38.90Q149.75 37.70 151.30 36.10L154.05 34.55Q152.25 35.90 151.27 36.77Q150.30 37.65 149.90 38.32Q149.50 39.00 149.50 39.80Q149.50 40.60 149.80 42.07Q150.10 43.55 150.10 45.05Q150.10 47.25 148.97 49.37Q147.85 51.50 145.97 53.20Q144.10 54.90 141.82 55.92Q139.55 56.95 137.20 56.95Q136.15 56.95 136.15 56.30Q136.15 55.60 137.70 55.10Q139.25 54.60 141.50 54.60Q147.05 54.60 152.40 48.70L153 48.05L153.50 48.05L153.05 48.55ZM160.40 59.80L201.50 12.70L202.15 12.70L161.05 59.80L160.40 59.80ZM212.15 43.85Q207.75 43.85 204.28 42.57Q200.80 41.30 198.80 39.10Q196.80 36.90 196.80 34.10Q196.80 30.25 199.60 27.30Q202.40 24.35 207.43 22.70Q212.45 21.05 219.00 21.05Q223.75 21.05 228.48 22.22Q233.20 23.40 237.48 25.57Q241.75 27.75 245.10 30.80L244.90 31.25Q241.55 28.25 237.30 26.07Q233.05 23.90 228.38 22.72Q223.70 21.55 219.00 21.55Q214.30 21.55 210.33 22.47Q206.35 23.40 203.43 25.07Q200.50 26.75 198.90 29.05Q197.30 31.35 197.30 34.10Q197.30 36.75 199.25 38.85Q201.20 40.95 204.58 42.15Q207.95 43.35 212.20 43.35Q215.60 43.35 219.35 42.42Q223.10 41.50 226.80 39.92Q230.50 38.35 233.83 36.30Q237.15 34.25 239.73 31.97Q242.30 29.70 243.78 27.40Q245.25 25.10 245.25 23.00Q245.25 22.00 244.70 21.40Q244.15 20.80 243.25 20.80Q241.50 20.80 239.33 22.12Q237.15 23.45 234.98 25.60Q232.80 27.75 230.98 30.32Q229.15 32.90 228.05 35.47Q226.95 38.05 226.95 40.10Q226.95 42.40 227.98 43.75Q229.00 45.10 230.75 45.10Q232.95 45.10 235.48 43.95Q238.00 42.80 240.53 40.80Q243.05 38.80 245.35 36.25Q247.65 33.70 249.45 30.87Q251.25 28.05 252.30 25.25Q253.35 22.45 253.35 20.00Q253.35 16.90 251.85 15.27Q250.35 13.65 247.45 13.65Q244.30 13.65 240.83 15.12Q237.35 16.60 233.88 19.17Q230.40 21.75 227.30 25.05Q224.20 28.35 221.78 32.02Q219.35 35.70 217.95 39.37Q216.55 43.05 216.55 46.40Q216.55 51.20 218.85 53.67Q221.15 56.15 225.65 56.15Q227.90 56.15 230.60 55.20Q233.30 54.25 236.15 52.57Q239.00 50.90 241.70 48.62Q244.40 46.35 246.65 43.70L247.25 43.70Q245.00 46.45 242.23 48.80Q239.45 51.15 236.53 52.92Q233.60 54.70 230.80 55.67Q228.00 56.65 225.65 56.65Q220.25 56.65 217.18 53.47Q214.10 50.30 214.10 44.70Q214.10 41.10 215.48 37.37Q216.85 33.65 219.30 30.10Q221.75 26.55 224.98 23.45Q228.20 20.35 231.90 18.00Q235.60 15.65 239.48 14.32Q243.35 13.00 247.10 13.00Q250.10 13.00 251.98 14.95Q253.85 16.90 253.85 20.00Q253.85 22.55 252.80 25.42Q251.75 28.30 249.93 31.17Q248.10 34.05 245.75 36.62Q243.40 39.20 240.83 41.22Q238.25 43.25 235.65 44.42Q233.05 45.60 230.75 45.60Q228.80 45.60 227.63 44.10Q226.45 42.60 226.45 40.10Q226.45 37.90 227.58 35.27Q228.70 32.65 230.58 30.00Q232.45 27.35 234.68 25.15Q236.90 22.95 239.13 21.62Q241.35 20.30 243.20 20.30Q244.40 20.30 245.08 21.00Q245.75 21.70 245.75 23.00Q245.75 25.20 244.28 27.57Q242.80 29.95 240.20 32.30Q237.60 34.65 234.25 36.72Q230.90 38.80 227.13 40.40Q223.35 42.00 219.53 42.92Q215.70 43.85 212.15 43.85M190.85 55.35Q190.85 58.05 192.18 60.45Q193.50 62.85 195.80 64.67Q198.10 66.50 201.13 67.55Q204.15 68.60 207.50 68.60Q213.30 68.60 218.23 67.32Q223.15 66.05 227.70 63.15Q232.25 60.25 236.85 55.47Q241.45 50.70 246.60 43.75Q248.10 41.75 250.08 39.35Q252.05 36.95 254.40 34.30L256.90 34.30Q255.60 35.05 254.43 36.00Q253.25 36.95 251.98 38.30Q250.70 39.65 249.08 41.65Q247.45 43.65 245.20 46.60Q240.90 52.65 237.45 56.95Q234.00 61.25 230.98 64.07Q227.95 66.90 225.03 68.52Q222.10 70.15 218.93 70.80Q215.75 71.45 211.90 71.45Q207.55 71.45 203.65 70.17Q199.75 68.90 196.78 66.65Q193.80 64.40 192.08 61.50Q190.35 58.60 190.35 55.35Q190.35 51.95 191.90 49.02Q193.45 46.10 196.25 43.95Q199.05 41.80 202.83 40.60Q206.60 39.40 211.05 39.40Q215.45 39.40 218.73 40.60Q222.00 41.80 223.83 43.97Q225.65 46.15 225.65 49.05Q225.65 51.50 224.40 53.65Q223.15 55.80 220.93 57.42Q218.70 59.05 215.78 59.95Q212.85 60.85 209.45 60.85Q205.05 60.85 202.43 59.07Q199.80 57.30 199.80 54.35Q199.80 52.55 201.13 51.10Q202.45 49.65 204.40 49.35L204.80 49.70Q202.95 50.00 201.65 51.32Q200.35 52.65 200.35 54.30Q200.35 57.05 202.83 58.70Q205.30 60.35 209.45 60.35Q212.70 60.35 215.55 59.47Q218.40 58.60 220.55 57.05Q222.70 55.50 223.93 53.45Q225.15 51.40 225.15 49.05Q225.15 46.30 223.38 44.25Q221.60 42.20 218.45 41.05Q215.30 39.90 211.05 39.90Q206.70 39.90 203.03 41.05Q199.35 42.20 196.60 44.27Q193.85 46.35 192.35 49.17Q190.85 52.00 190.85 55.35ZM254.80 41.35L258.70 41.35Q257.60 41.90 255.90 43.35Q254.20 44.80 252.35 46.62Q250.50 48.45 248.88 50.30Q247.25 52.15 246.23 53.62Q245.20 55.10 245.20 55.70Q245.20 56.65 246 56.65Q246.95 56.65 248.80 55.42Q250.65 54.20 253 52.05Q255.35 49.90 257.70 47.25L258.25 47.25Q253.90 51.85 250.68 54.40Q247.45 56.95 245.95 56.95Q245.35 56.95 245.03 56.55Q244.70 56.15 244.70 55.50Q244.70 54.20 245.63 52.47Q246.55 50.75 248.75 48.10Q250.95 45.45 254.80 41.35M254.40 56.95Q252.95 56.95 252.95 55.45Q252.95 53.55 255.35 50.22Q257.75 46.90 263.05 41.35L266.95 41.35Q266.30 41.70 265.38 42.37Q264.45 43.05 263.30 44.20Q259.80 47.70 257.70 49.95Q255.60 52.20 254.65 53.52Q253.70 54.85 253.70 55.65Q253.70 56.65 254.45 56.65Q255.35 56.65 257 55.55Q258.65 54.45 260.68 52.65Q262.70 50.85 264.65 48.70L265.25 48.05L265.75 48.05L265.30 48.55Q263.15 51.00 261.03 52.90Q258.90 54.80 257.15 55.87Q255.40 56.95 254.40 56.95ZM262.60 56.95Q262 56.95 261.57 56.52Q261.15 56.10 261.15 55.45Q261.15 53.55 263.55 50.22Q265.95 46.90 271.25 41.35L275.15 41.35Q274.50 41.70 273.57 42.42Q272.65 43.15 271.50 44.20Q267.95 47.65 265.82 49.90Q263.70 52.15 262.77 53.50Q261.85 54.85 261.85 55.65Q261.85 56.65 262.65 56.65Q263.55 56.65 265.23 55.57Q266.90 54.50 268.93 52.67Q270.95 50.85 272.85 48.70L273.45 48.05L273.95 48.05L273.50 48.55Q271.35 51.00 269.23 52.90Q267.10 54.80 265.35 55.87Q263.60 56.95 262.60 56.95M283.60 28.90Q284.15 28.90 284.15 29.30Q284.15 29.95 283.32 30.85Q282.50 31.75 281.45 32.42Q280.40 33.10 279.60 33.10Q279.10 33.10 279.10 32.70Q279.10 32.10 279.93 31.20Q280.75 30.30 281.82 29.60Q282.90 28.90 283.60 28.90ZM299.90 32.45L297.70 32.45L315 12.85L319.10 12.85Q317.70 13.50 314.13 16.95Q310.55 20.40 305.45 26.15L299.90 32.45M272.30 56.85Q270.65 56.85 270.65 54.30Q270.65 52.60 271.65 50.70Q272.65 48.80 274.35 47.02Q276.05 45.25 278.15 43.80Q280.25 42.35 282.47 41.50Q284.70 40.65 286.70 40.65Q288.40 40.65 288.40 41.95Q288.40 43.15 286.85 45.02Q285.30 46.90 282.95 49.35Q281.10 51.25 279.05 52.97Q277 54.70 275.22 55.77Q273.45 56.85 272.30 56.85M272.35 56.50Q273.30 56.50 274.93 55.55Q276.55 54.60 278.57 52.92Q280.60 51.25 282.70 49.10Q285.05 46.65 286.50 44.87Q287.95 43.10 287.95 42.00Q287.95 41.15 286.85 41.15Q285.85 41.15 284.32 41.95Q282.80 42.75 281.07 44.07Q279.35 45.40 277.65 47.00Q275.95 48.60 274.55 50.25Q273.15 51.90 272.30 53.32Q271.45 54.75 271.45 55.70Q271.45 56.50 272.35 56.50M286.80 47.25Q284.50 49.80 283.13 51.40Q281.75 53.00 281.18 53.97Q280.60 54.95 280.60 55.65Q280.60 56.65 281.40 56.65Q282.30 56.65 284 55.62Q285.70 54.60 287.82 52.80Q289.95 51.00 292.10 48.70L292.70 48.05L293.20 48.05L292.75 48.55Q290.60 50.90 288.38 52.82Q286.15 54.75 284.30 55.85Q282.45 56.95 281.30 56.95Q280.75 56.95 280.32 56.52Q279.90 56.10 279.90 55.45Q279.90 53.75 281.75 50.90Q283.60 48.05 286.90 44.65L297.70 32.45L299.90 32.45L286.80 47.25ZM293.20 56.65Q294.85 56.65 297.05 55.60Q299.25 54.55 301.60 52.75Q303.95 50.95 305.95 48.70L306.55 48.05L307.05 48.05L306.60 48.55Q304.50 50.90 302.02 52.82Q299.55 54.75 297.22 55.85Q294.90 56.95 293.20 56.95Q291.90 56.95 291.13 56.02Q290.35 55.10 290.35 53.50Q290.35 51.90 291.30 50.15Q292.25 48.40 293.82 46.72Q295.40 45.05 297.38 43.70Q299.35 42.35 301.43 41.55Q303.50 40.75 305.40 40.75Q306.25 40.75 306.75 41.10Q307.25 41.45 307.25 42.00Q307.25 43.05 306.07 44.20Q304.90 45.35 303.05 46.35Q301.20 47.35 299.10 48.00Q297 48.65 295.10 48.65L295.55 48.20Q297.35 48.10 299.27 47.50Q301.20 46.90 302.85 45.95Q304.50 45.00 305.55 43.95Q306.60 42.90 306.60 42.00Q306.60 41.20 305.55 41.20Q304.35 41.20 302.57 42.25Q300.80 43.30 298.90 44.95Q297 46.60 295.35 48.52Q293.70 50.45 292.68 52.22Q291.65 54.00 291.65 55.25Q291.65 56.65 293.20 56.65Z"/></g></g></svg>